<svg xmlns="http://www.w3.org/2000/svg" viewBox="0 0 1080 1079.24"><g id="Layer_2" data-name="Layer 2"><g id="Layer_1-2" data-name="Layer 1"><path d="M1080,469.39V390.94a10.84,10.84,0,0,1-.32-1.7c-1.08-4-2.26-8-3-12.08-.7-3.83-2-7.51-2.73-11.33a2.75,2.75,0,0,1,.15-1.63,21.36,21.36,0,0,1-1.69-5.4,37.86,37.86,0,0,1-1.63-4.47c-2.49-7.6-4.57-15.36-7.54-22.76-2.56-6.4-6.4-12.28-9.18-18.6a140.44,140.44,0,0,0-17-28.38,223.92,223.92,0,0,0-39.9-40.78c-8.74-6.88-17.72-13.52-27.66-18.71-3.41-1.79-6.42-4.34-9.82-6.15-4.6-2.43-9.39-4.49-14.11-6.68-6.12-2.83-12.1-6.05-18.41-8.36-23.51-8.62-47.42-15.83-72.33-19.31-10.23-1.42-20.45-3-30.66-4.57-6.29-.95-10.48-4.89-13.75-10-4.85-7.56-9.41-15.3-14.45-22.73a338.1,338.1,0,0,0-36.54-44.89A239.28,239.28,0,0,0,731.3,76.92c-8.83-6.64-17.5-13.5-26.45-20-4.21-3-8.92-5.39-13.4-8-5.24-3.11-10.42-6.32-15.73-9.28s-10.66-6-16.22-8.46c-6.23-2.78-12.73-5-19.1-7.42-7.79-3-15.48-6.33-23.37-9-5.34-1.83-11-2.82-16.45-4.27-3-.78-5.84-1.86-8.81-2.54A4.12,4.12,0,0,1,589,6.13a8.85,8.85,0,0,1-2-.66A56.09,56.09,0,0,1,575.8,1.24c-1-.47-2.08-.87-3.13-1.24h-92c-4.33,1.27-8.69,2.26-13.26,1.82-.73.21-1.47.42-2.19.65C458.6,4.5,452,6.16,445.35,8a2.53,2.53,0,0,1-2.11-.3l-.28.09a2.29,2.29,0,0,1-3.39,1l-.62.19c-16.18,4.87-32.2,10.05-48,16-13.21,5-25.27,12.13-38.16,17.64-5.3,2.26-9.81,6.31-14.85,9.26-17,10-32.06,22.42-46.63,35.58-11.44,10.34-22.45,21.06-32.17,33-6.23,7.64-11.62,16-17.61,23.81-8.15,10.7-14.71,22.38-21.42,34-3.15,5.42-5.38,11.37-8.38,16.89-7.79,14.32-11.94,30.06-17.48,45.22-3.34,9.13-4.88,19-6.72,28.57-2,10.23-3.14,20.61-5,30.88-1.58,8.94-7.07,14.57-15.87,16.72-5.15,1.26-10.42,2-15.6,3.18-14.49,3.2-29,6.31-42.51,12.8-4.61,2.22-9.64,3.59-14.17,5.94-6,3.14-11.81,6.83-17.67,10.32-16,9.48-29.24,21.93-41,36.26-7.29,8.89-13.09,18.68-18.77,28.57C15,417,14,421.05,12.47,424.8c-1.13,2.79-2.28,5.58-3.52,8.34.28,4.44-1.36,8.85-2.82,13a123.46,123.46,0,0,0-3.94,13.76C1.35,463.56.65,467.27,0,471v57.47l.3,1q1.68,4.56,3.2,9.18a3.05,3.05,0,0,1,1,1.44c.3.89.69,1.76,1,2.65a2.28,2.28,0,0,1,0,1.57c.63,1.57,1.3,3.14,1.94,4.7a7.09,7.09,0,0,1,.88,1.72,139.63,139.63,0,0,0,6.42,16c4.87,9.5,9.74,19.07,15.53,28A168.11,168.11,0,0,0,61,629.69C69.18,636.84,77.38,644,87.27,649c6.42,3.19,12.37,7.42,18.92,10.27,7.31,3.17,15,5.36,22.64,7.87,5.54,1.82,11,3.94,16.74,5.07,12.57,2.48,25.37,2.79,38.14,2.8q136.06,0,272.13-.05,81.26,0,162.53.08c10.17,0,20.34.07,30.51,0a27.72,27.72,0,0,0,16.18-5.2c13.44-9.56,12.08-28.13-2.63-35.61-7-3.56-14.6-3.85-22.12-3.85q-221.8-.12-443.6-.06-11.73,0-23.45-.09a20.57,20.57,0,0,1-3.76-.28c-7.93-1.59-15.91-3-23.74-5a168.72,168.72,0,0,1-20.28-6.42c-4.13-1.61-7.65-4.73-11.7-6.63-11-5.18-20.18-12.86-28.71-21.21-8.75-8.56-16.4-18.11-21.81-29.28-2.54-5.24-6.29-10-8.15-15.43-3.2-9.34-5.25-19.06-7.94-28.57-3-10.5-2.94-21.23-2.17-31.9,1.18-16.3,5.94-32,12.43-46.73a116.89,116.89,0,0,1,20.74-32,157.22,157.22,0,0,1,29.11-25.12,190.52,190.52,0,0,1,17.39-9.74c3.81-2,7.68-4.2,11.8-5.19,7.85-1.9,15.88-3,23.84-4.44,7.73-1.39,15.5-2.12,23.35-1.08,8.46,1.13,16.94,2.15,25.39,3.32,8,1.11,15.69,3.11,22.8,7.1a51.07,51.07,0,0,0,8,3.75c10.94,3.86,20.34,10.43,29.3,17.43,8.77,6.85,16.68,14.77,25,22.14a79.6,79.6,0,0,0,8.86,7c13.89,9.08,26.59,1.3,31.91-8.49,3.61-6.63,2.87-13.8-1.17-19.82a149.42,149.42,0,0,0-16.26-20.4,198.57,198.57,0,0,0-36-29.06c-12.55-8-26.21-13.85-40.18-18.83-10.79-3.84-14.61-8-14-19.31a177.33,177.33,0,0,1,3.63-26.14c2.2-10.45,5.07-20.79,8.08-31,2.18-7.4,4.82-14.7,7.72-21.85,2.23-5.48,5.12-10.7,7.83-16,3.56-6.95,6.88-14,10.95-20.68,6.58-10.71,13.3-21.38,20.7-31.53,5.38-7.37,12.09-13.76,17.93-20.82,8.07-9.76,17.6-17.95,27.28-26,4.42-3.67,9-7.17,13.75-10.43,9.1-6.26,18.15-12.62,27.6-18.32,7.12-4.31,14.83-7.66,22.28-11.42a32.06,32.06,0,0,1,3.42-1.59q8.84-3.3,17.71-6.51c7.68-2.79,15.18-6.33,23.08-8.2,19-4.5,38-8.65,57.64-9.81,14-.84,28-1.24,42,0,18.09,1.58,35.66,5.8,53.43,9.08,14.47,2.68,27.45,9.66,41.16,14.52,9.06,3.21,17.71,7.93,26,12.86,10.8,6.4,22,12.25,31.66,20.45,8.77,7.45,17.87,14.53,26.25,22.39a282.41,282.41,0,0,1,22.11,23.26c7.49,8.82,14.44,18.13,21.23,27.51,4.12,5.69,2.6,11.11-3.57,14.41-5.46,2.92-11.05,5.62-16.71,8.13-6.57,2.92-13.52,5.06-19.86,8.38-11,5.76-21.89,11.71-31.64,19.54-8.18,6.57-16.83,12.63-24.61,19.65-7,6.37-13.39,13.56-19.67,20.71a98.8,98.8,0,0,0-11.44,15.24,20.81,20.81,0,0,0,4.69,26.44c7.72,6.48,20.44,7,28,.51,5.12-4.43,9.3-9.93,14.14-14.72,8.56-8.45,17.14-16.9,26-25,7.53-6.89,16.55-11.7,25.17-17.06a103.28,103.28,0,0,1,19.15-9.81c6.84-2.48,13.39-5.79,20.29-8.09,19.48-6.52,39.76-8.72,60.09-8.65,13.78.05,27.58,2.21,41.31,3.87,11,1.33,21.76,4,31.69,9.26,2.13,1.14,4.49,1.85,6.73,2.78,5.22,2.17,10.76,3.82,15.59,6.65,8.9,5.21,17.37,11.16,26.06,16.74,10.54,6.77,19.06,15.86,27.83,24.6,12.51,12.46,21.74,27.39,30.68,42.48a111,111,0,0,1,5.14,11c2.54,5.63,5.64,11.1,7.44,17a364.89,364.89,0,0,1,9.56,40.37c3.34,17.89,2.91,35.64.16,53.41-1.34,8.68-4,17.15-5.64,25.8-2.91,15.6-9.61,29.74-16.64,43.7a140.92,140.92,0,0,1-12.75,20.62,259.36,259.36,0,0,1-19.71,23.54c-8.48,8.92-17.76,17.07-26.47,25.78a25.22,25.22,0,0,0-5.24,8c-2.61,6.25-1.49,15.2,6.48,22,8.31,7.06,16.94,8.37,25.53,3.39,11.88-6.9,21.68-16.33,31.2-26,6.16-6.25,11.57-13.25,17.09-20.1a215.71,215.71,0,0,0,26.48-41.49c6.76-14,13.21-28.15,17.56-43.16.43-1.49.77-2.64,1.13-3.53a2.89,2.89,0,0,1,.22-.52,4.79,4.79,0,0,1,.82-1.28l.37-.54c.66-4.19,2.79-7.87,4.55-11.7C1077.67,474.83,1078.71,472.09,1080,469.39Z"/><path d="M670.08,988.48c-5.81-12.14-10.31-24.92-17.88-36.23-3.79-5.66-6.7-11.9-10.18-17.77-2.56-4.33-5.25-8.6-8.16-12.69a126.65,126.65,0,0,0-10.05-13,21.9,21.9,0,0,0-26.88-4.4A37.64,37.64,0,0,0,585,916c-3.35,4.79-6.35,9.81-9.37,14.81-6,9.92-12.19,19.73-17.73,29.89-4.2,7.71-7.33,16-11.28,23.87-7.06,14.07-7.7,28.79-4.93,43.91,1.21,6.6,4.7,12.15,8,17.84a73.85,73.85,0,0,0,23.83,24.53l.24.16a2.79,2.79,0,0,1,.85.39c5.46,3.61,12,4.51,18.16,6.35l.26,0c6.41.75,12.84,1.65,19.31,1.49,6.77-.17,12.9-2.4,19.46-3.77l3.11-.65a8.19,8.19,0,0,1,2.12-1l.24-.19a16.85,16.85,0,0,1,2.65-1.75,10.33,10.33,0,0,1,1.2-.88,67,67,0,0,0,9.21-7c12.22-11.28,21.69-24.23,23.81-41.35C675.65,1010.87,675.21,999.2,670.08,988.48Zm-44.6,34.86c-3.81,5.48-8.64,10-15.66,10.93a15.42,15.42,0,0,1-7.38-.63c-8.06-3.22-14.08-8.71-16.06-17.48a15.26,15.26,0,0,1,.55-7.92c3.13-9.07,6.41-18.11,10.16-26.93a11.22,11.22,0,0,1,10.08-7.11,10.77,10.77,0,0,1,10.29,6.3A138.34,138.34,0,0,1,628.94,1012a12.35,12.35,0,0,1,.15,1.61l.66.31C628.36,1017.11,627.41,1020.56,625.48,1023.34Z"/><path d="M877.77,697.88c-.73,15.42-.94,28.72-4.7,41.5a186.32,186.32,0,0,1-8.3,21.91A79.82,79.82,0,0,1,836,795.86a77.79,77.79,0,0,1-36.59,13.47c-14.15,1.33-28.14,1.07-41.57-3.75-9.49-3.4-18.6-8.1-26.06-15a90.35,90.35,0,0,1-21-28.09c-3.45-7.37-7.06-14.61-8.47-22.64s-2.14-16.41-3.54-24.56c-2.52-14.71.22-29,2.78-43.36,2-11.33,7-21.45,11.43-31.89,7.29-17.33,17.08-33.22,27.35-48.85,7-10.66,13.94-21.39,21.42-31.71a100.77,100.77,0,0,1,13-14c7.27-6.82,20.13-6.27,27.73,1.48a141.46,141.46,0,0,1,14.62,17.6c8.58,12.18,16.68,24.7,24.7,37.28a307.77,307.77,0,0,1,20.56,38.73c5.88,13,12.11,26.18,13.77,40.73C876.79,687.53,877.35,693.79,877.77,697.88Zm-135.23,3.54c.12,2.49.21,7.26.6,12a112.61,112.61,0,0,0,1.54,12.3c1.49,7.72,5.46,14.39,9.27,21.14,2.63,4.66,5.88,8.65,10.74,11,5,2.49,10,5.74,15.36,7a33.83,33.83,0,0,0,26.66-4.62c7.42-4.83,13.87-10.41,17.3-19,4.19-10.47,8.21-20.84,8.41-32.41.13-7.4.7-14.88-1.36-22a284,284,0,0,0-9.95-28.48c-2.39-5.86-6-11.21-9.1-16.8-4.57-8.35-9-16.75-13.7-25a23,23,0,0,0-4.23-5.22,8.56,8.56,0,0,0-11.36-.46,21.16,21.16,0,0,0-4.68,4.77Q771.32,626.2,765,637q-4.47,7.66-8.5,15.59c-1.58,3.11-2.58,6.52-4.16,9.64C746.5,673.89,742.3,685.92,742.54,701.42Z"/><path d="M269.84,833.64c8.41.41,14.44,4.65,19.26,10.66,3.47,4.32,6.27,9.17,9.39,13.78,2,2.9,4.11,5.7,5.89,8.71,3.44,5.8,6.31,12,10.06,17.53,7.69,11.45,12.29,24.39,18.16,36.69,5.12,10.73,5.77,22.44,4,34.1-3,20.44-14.49,35.39-31.27,46.67-7.46,5-15.39,8.91-24.52,9.89-10.73,1.14-21.43,1.17-31.75-2.35-8-2.72-15-7.42-21.56-12.59-9.61-7.51-16-17.53-20.89-28.41-2-4.57-2.85-9.83-3.48-14.87-1.32-10.67-.46-21.22,3.72-31.26,2.27-5.47,4.75-10.88,7.43-16.16C219.45,895.94,224.77,886,230,876c1.13-2.15,2.33-4.26,3.64-6.3,4.57-7.11,9-14.28,13.86-21.22,3.44-4.95,7.38-9.64,13.16-12A91.74,91.74,0,0,1,269.84,833.64Zm.85,133.47c7.36-.43,12.77-5.15,17.28-11.11,3.07-4,4.71-8.73,3-13.69-3.36-9.74-6.37-19.72-10.91-28.91-4.07-8.25-13-9.32-18.47-2.25-2.58,3.31-4.25,7.45-5.75,11.43a187.67,187.67,0,0,0-7,21.21,14.43,14.43,0,0,0,1.51,9.26,36.22,36.22,0,0,0,7.45,9.07A18.21,18.21,0,0,0,270.69,967.11Z"/><path d="M449.94,877.47c-10.93.78-20.79-2.75-30.53-8.11a75.3,75.3,0,0,1-23.33-19.64c-3.05-3.9-5.15-8.6-7.29-13.12-4.17-8.79-6.68-18-6.43-27.87.2-8.07,3.23-15.4,5.81-22.89a192,192,0,0,1,16.06-34.66Q414,734.47,424.29,718a87.44,87.44,0,0,1,8.07-10.11c9.47-11,24.06-11.8,34.41-1.48,3.71,3.7,6.7,8.21,9.6,12.62,4.2,6.37,8,13,12,19.5,3.13,5.13,6.53,10.11,9.33,15.41,4.35,8.25,8.59,16.59,12.3,25.13,4,9.13,5.61,18.95,6.79,28.78,1.57,13.08-2,25.16-8.92,36a76.25,76.25,0,0,1-28.56,26.43C470,875.28,460.61,877.93,449.94,877.47ZM429.27,808c-.18,13.1,6.23,19.93,15.5,23.34,6.58,2.43,12.29-.3,17.62-4.12,7.39-5.3,10.55-12.36,8.66-21.33-2.32-11.05-8-20.79-13-30.69-3-6-9.47-6.21-14.3-1.46a14.59,14.59,0,0,0-2.79,3.58c-2.28,4.38-4.5,8.79-6.55,13.28C431.58,796.72,429.65,803.15,429.27,808Z"/></g></g></svg>